<svg width="34" height="29" viewBox="0 0 34 29" fill="none" xmlns="http://www.w3.org/2000/svg">
<path d="M5.33331 28.3333V15H0.333313L17 0L33.6666 15H28.6666V28.3333H5.33331ZM7.83331 25.8333H26.1666V11.5833L17 3.375L7.83331 11.5833V25.8333ZM17 21.25C17.8055 21.25 18.493 20.9653 19.0625 20.3958C19.6319 19.8264 19.9166 19.1389 19.9166 18.3333C19.9166 17.6111 19.7778 16.9722 19.5 16.4167C19.2222 15.8611 18.3889 14.5833 17 12.5833C15.6111 14.5833 14.7778 15.8611 14.5 16.4167C14.2222 16.9722 14.0833 17.6111 14.0833 18.3333C14.0833 19.1389 14.368 19.8264 14.9375 20.3958C15.5069 20.9653 16.1944 21.25 17 21.25Z" fill="currentColor"/>
</svg>
