<svg width="30" height="33" viewBox="0 0 30 33" fill="none" xmlns="http://www.w3.org/2000/svg">
<path d="M16.375 32.1667L14 31.4167L14.5833 29.6667C14.6667 29.4167 14.7222 29.1736 14.75 28.9375C14.7778 28.7014 14.7917 28.4583 14.7917 28.2083C14.7917 27.7361 14.7361 27.2847 14.625 26.8542C14.5139 26.4236 14.3056 25.9722 14 25.5C13.5556 24.7778 13.2361 24.1042 13.0417 23.4792C12.8472 22.8542 12.7361 22.1389 12.7083 21.3333C12.7083 21 12.7431 20.6181 12.8125 20.1875C12.8819 19.7569 12.9722 19.3611 13.0833 19L13.625 17.25L16 18L15.4167 19.75C15.3333 20 15.2778 20.2639 15.25 20.5417C15.2222 20.8194 15.2083 21.0833 15.2083 21.3333C15.2083 21.8611 15.2639 22.3056 15.375 22.6667C15.4861 23.0278 15.6944 23.4444 16 23.9167C16.4444 24.6389 16.7708 25.3333 16.9792 26C17.1875 26.6667 17.2917 27.4028 17.2917 28.2083C17.2917 28.5694 17.2569 28.9375 17.1875 29.3125C17.1181 29.6875 17.0278 30.0556 16.9167 30.4167L16.375 32.1667ZM9.04167 32.1667L6.66667 31.4167L7.25 29.6667C7.33333 29.4167 7.38889 29.1806 7.41667 28.9583C7.44444 28.7361 7.45833 28.4861 7.45833 28.2083C7.45833 27.7083 7.40278 27.2292 7.29167 26.7708C7.18056 26.3125 6.97222 25.875 6.66667 25.4583C6.25 24.8472 5.93056 24.1944 5.70833 23.5C5.48611 22.8056 5.375 22.0833 5.375 21.3333C5.375 20.9444 5.40278 20.5556 5.45833 20.1667C5.51389 19.7778 5.61111 19.3889 5.75 19L6.29167 17.25L8.66667 18L8.08333 19.75C8 20.0278 7.94444 20.3056 7.91667 20.5833C7.88889 20.8611 7.875 21.1111 7.875 21.3333C7.875 21.9167 7.95139 22.4167 8.10417 22.8333C8.25694 23.25 8.44444 23.625 8.66667 23.9583C9.08333 24.5694 9.40278 25.2431 9.625 25.9792C9.84722 26.7153 9.95833 27.4444 9.95833 28.1667C9.95833 28.5278 9.92361 28.9028 9.85417 29.2917C9.78472 29.6806 9.69444 30.0556 9.58333 30.4167L9.04167 32.1667ZM23.5417 32.1667L21.1667 31.4167L21.75 29.6667C21.8333 29.4167 21.8889 29.1736 21.9167 28.9375C21.9444 28.7014 21.9583 28.4583 21.9583 28.2083C21.9583 27.7361 21.8958 27.2569 21.7708 26.7708C21.6458 26.2847 21.4444 25.8472 21.1667 25.4583C20.75 24.875 20.4306 24.2222 20.2083 23.5C19.9861 22.7778 19.875 22.0556 19.875 21.3333C19.875 20.9444 19.9028 20.5556 19.9583 20.1667C20.0139 19.7778 20.1111 19.3889 20.25 19L20.7917 17.25L23.1667 18L22.5833 19.75C22.4722 20.0556 22.4097 20.3264 22.3958 20.5625C22.3819 20.7986 22.375 21.0556 22.375 21.3333C22.375 21.8333 22.4375 22.2847 22.5625 22.6875C22.6875 23.0903 22.8889 23.5 23.1667 23.9167C23.6111 24.5556 23.9375 25.2361 24.1458 25.9583C24.3542 26.6806 24.4583 27.4306 24.4583 28.2083C24.4583 28.5694 24.4236 28.9375 24.3542 29.3125C24.2847 29.6875 24.1944 30.0556 24.0833 30.4167L23.5417 32.1667ZM2.5 5H27.5V2.5H2.5V5ZM8.29167 10H21.7083L22.4583 7.5H7.54167L8.29167 10ZM8.29167 12.5C7.76389 12.5 7.27778 12.3403 6.83333 12.0208C6.38889 11.7014 6.08333 11.2778 5.91667 10.75L4.875 7.5H2.5C1.80556 7.5 1.21528 7.25694 0.729167 6.77083C0.243056 6.28472 0 5.69444 0 5V0H30V5C30 5.69444 29.7569 6.28472 29.2708 6.77083C28.7847 7.25694 28.1944 7.5 27.5 7.5H25.125L23.875 10.875C23.6806 11.3472 23.3681 11.7361 22.9375 12.0417C22.5069 12.3472 22.0278 12.5 21.5 12.5H8.29167ZM2.5 5V2.5V5Z" fill="currentColor"/>
</svg>
