<svg width="28" height="30" viewBox="0 0 28 30" fill="none" xmlns="http://www.w3.org/2000/svg">
<path d="M15.25 26.25C14.8611 26.25 14.5209 26.1042 14.2292 25.8125C13.9375 25.5208 13.7917 25.1806 13.7917 24.7917V17.7083C13.7917 17.3194 13.9375 16.9792 14.2292 16.6875C14.5209 16.3958 14.8611 16.25 15.25 16.25H22.5417C22.9306 16.25 23.2709 16.3958 23.5625 16.6875C23.8542 16.9792 24 17.3194 24 17.7083V20L27.3334 18.0833V24.4167L24 22.5V24.7917C24 25.1806 23.8542 25.5208 23.5625 25.8125C23.2709 26.1042 22.9306 26.25 22.5417 26.25H15.25ZM0.666687 30V10L14 0L27.3334 10V15H24.8334V11.25L14 3.125L3.16669 11.25V27.5H27.3334V30H0.666687Z" fill="currentColor"/>
</svg>
