<svg width="26" height="35" viewBox="0 0 26 35" fill="none" xmlns="http://www.w3.org/2000/svg">
<path d="M13 34.6667C12.0556 34.6667 11.2569 34.3403 10.6042 33.6875C9.95139 33.0347 9.625 32.2361 9.625 31.2917H16.375C16.375 32.2361 16.0486 33.0347 15.3958 33.6875C14.7431 34.3403 13.9444 34.6667 13 34.6667ZM6.25 28.7083V26.2083H19.75V28.7083H6.25ZM6.45833 23.6667C4.625 22.4722 3.17361 20.9792 2.10417 19.1875C1.03472 17.3958 0.5 15.375 0.5 13.125C0.5 9.73611 1.73611 6.80556 4.20833 4.33333C6.68056 1.86111 9.61111 0.625 13 0.625C16.3889 0.625 19.3194 1.86111 21.7917 4.33333C24.2639 6.80556 25.5 9.73611 25.5 13.125C25.5 15.375 24.9722 17.3958 23.9167 19.1875C22.8611 20.9792 21.4028 22.4722 19.5417 23.6667H6.45833ZM7.375 21.1667H18.6667C20 20.2778 21.0556 19.125 21.8333 17.7083C22.6111 16.2917 23 14.7639 23 13.125C23 10.375 22.0208 8.02083 20.0625 6.0625C18.1042 4.10417 15.75 3.125 13 3.125C10.25 3.125 7.89583 4.10417 5.9375 6.0625C3.97917 8.02083 3 10.375 3 13.125C3 14.7639 3.38889 16.2917 4.16667 17.7083C4.94444 19.125 6.01389 20.2778 7.375 21.1667V21.1667Z" fill="currentColor"/>
</svg>
