<svg width="34" height="30" viewBox="0 0 34 30" fill="none" xmlns="http://www.w3.org/2000/svg">
<path d="M0.333313 30V27.5H3.66665V0H30.3333V27.5H33.6666V30H0.333313ZM6.16665 13.75H27.8333V2.5H6.16665V13.75ZM6.16665 27.5H27.8333V16.25H18.25V19.9167C18.6389 20.1389 18.9444 20.4375 19.1666 20.8125C19.3889 21.1875 19.5 21.6111 19.5 22.0833C19.5 22.7778 19.2569 23.3681 18.7708 23.8542C18.2847 24.3403 17.6944 24.5833 17 24.5833C16.3055 24.5833 15.7153 24.3403 15.2291 23.8542C14.743 23.3681 14.5 22.7778 14.5 22.0833C14.5 21.6111 14.6111 21.1875 14.8333 20.8125C15.0555 20.4375 15.3611 20.1389 15.75 19.9167V16.25H6.16665V27.5ZM6.16665 2.5H27.8333H6.16665Z" fill="currentColor"/>
</svg>
