<svg width="32" height="30" viewBox="0 0 32 30" fill="none" xmlns="http://www.w3.org/2000/svg">
<path d="M17.7917 10.8333V8.33333H27.375V10.8333H17.7917ZM17.7917 5.83333V3.33333H31.125V5.83333H17.7917ZM8.33333 29.9583C6.25 29.9583 4.46528 29.2153 2.97917 27.7292C1.49306 26.2431 0.75 24.4583 0.75 22.375C0.75 21.0417 1.08333 19.7847 1.75 18.6042C2.41667 17.4236 3.33333 16.4722 4.5 15.75V3.83333C4.5 2.77778 4.875 1.875 5.625 1.125C6.375 0.375 7.27778 0 8.33333 0C9.38889 0 10.2917 0.375 11.0417 1.125C11.7917 1.875 12.1667 2.77778 12.1667 3.83333V15.75C13.3333 16.4722 14.25 17.4236 14.9167 18.6042C15.5833 19.7847 15.9167 21.0417 15.9167 22.375C15.9167 24.4583 15.1736 26.2431 13.6875 27.7292C12.2014 29.2153 10.4167 29.9583 8.33333 29.9583ZM3.25 22.375H13.4167C13.4167 21.4028 13.1528 20.4444 12.625 19.5C12.0972 18.5556 11.3889 17.8889 10.5 17.5L9.66667 17.125V3.83333C9.66667 3.44444 9.54167 3.125 9.29167 2.875C9.04167 2.625 8.72222 2.5 8.33333 2.5C7.94444 2.5 7.625 2.625 7.375 2.875C7.125 3.125 7 3.44444 7 3.83333V17.125L6.16667 17.5C5.19444 17.9444 4.46528 18.625 3.97917 19.5417C3.49306 20.4583 3.25 21.4028 3.25 22.375Z" fill="currentColor"/>
</svg>
