<svg width="28" height="32" viewBox="0 0 28 32" fill="none" xmlns="http://www.w3.org/2000/svg">
<path d="M14 31.8333C10.3334 31.8333 7.19446 30.5625 4.58335 28.0208C1.97224 25.4792 0.666687 22.375 0.666687 18.7083C0.666687 16.875 1.01391 15.1736 1.70835 13.6042C2.4028 12.0347 3.36113 10.6389 4.58335 9.41666L14 0.166656L23.4167 9.41666C24.6389 10.6389 25.5972 12.0347 26.2917 13.6042C26.9861 15.1736 27.3334 16.875 27.3334 18.7083C27.3334 22.3472 26.0347 25.4444 23.4375 28C20.8403 30.5555 17.6945 31.8333 14 31.8333ZM3.20835 17.625H24.7917C24.6528 16.375 24.3334 15.2292 23.8334 14.1875C23.3334 13.1458 22.6389 12.1805 21.75 11.2917L14 3.66666L6.25002 11.2917C5.36113 12.1805 4.66669 13.1458 4.16669 14.1875C3.66669 15.2292 3.34724 16.375 3.20835 17.625Z" fill="currentColor"/>
</svg>
